<svg width="136" height="136" viewBox="0 0 136 136" fill="none" xmlns="http://www.w3.org/2000/svg">
<g filter="url(#filter0_d_23293_15183)">
<g clip-path="url(#paint0_angular_23293_15183_clip_path)" data-figma-skip-parse="true"><g transform="matrix(0 0.032 -0.032 0 68 68)"><foreignObject x="-1031.25" y="-1031.25" width="2062.5" height="2062.5"><div xmlns="http://www.w3.org/1999/xhtml" style="background:conic-gradient(from 90deg,rgba(102, 114, 255, 1) 0deg,rgba(80, 182, 255, 1) 64.0385deg,rgba(156, 220, 255, 1) 180deg,rgba(118, 64, 255, 1) 313.269deg,rgba(102, 114, 255, 1) 360deg);height:100%;width:100%;opacity:1"></div></foreignObject></g></g><rect x="36" y="36" width="64" height="64" rx="32" data-figma-gradient-fill="{&#34;type&#34;:&#34;GRADIENT_ANGULAR&#34;,&#34;stops&#34;:[{&#34;color&#34;:{&#34;r&#34;:0.31535455584526062,&#34;g&#34;:0.71473103761672974,&#34;b&#34;:1.0,&#34;a&#34;:1.0},&#34;position&#34;:0.17788460850715637},{&#34;color&#34;:{&#34;r&#34;:0.61237978935241699,&#34;g&#34;:0.86433291435241699,&#34;b&#34;:1.0,&#34;a&#34;:1.0},&#34;position&#34;:0.50},{&#34;color&#34;:{&#34;r&#34;:0.46438428759574890,&#34;g&#34;:0.25262922048568726,&#34;b&#34;:1.0,&#34;a&#34;:1.0},&#34;position&#34;:0.87019228935241699}],&#34;stopsVar&#34;:[{&#34;color&#34;:{&#34;r&#34;:0.31535455584526062,&#34;g&#34;:0.71473103761672974,&#34;b&#34;:1.0,&#34;a&#34;:1.0},&#34;position&#34;:0.17788460850715637},{&#34;color&#34;:{&#34;r&#34;:0.61237978935241699,&#34;g&#34;:0.86433291435241699,&#34;b&#34;:1.0,&#34;a&#34;:1.0},&#34;position&#34;:0.50},{&#34;color&#34;:{&#34;r&#34;:0.46438428759574890,&#34;g&#34;:0.25262922048568726,&#34;b&#34;:1.0,&#34;a&#34;:1.0},&#34;position&#34;:0.87019228935241699}],&#34;transform&#34;:{&#34;m00&#34;:3.9188699282725371e-15,&#34;m01&#34;:-64.0,&#34;m02&#34;:100.0,&#34;m10&#34;:64.0,&#34;m11&#34;:3.9188699282725371e-15,&#34;m12&#34;:36.0},&#34;opacity&#34;:1.0,&#34;blendMode&#34;:&#34;NORMAL&#34;,&#34;visible&#34;:true}" shape-rendering="crispEdges"/>
<path d="M59.6493 70.6838L64.6798 68.1689V68.1686C66.1893 67.4138 67.4132 66.19 68.168 64.6805L70.6841 59.6493C70.8493 59.3192 71.1868 59.1106 71.5561 59.1106C71.9252 59.1106 72.263 59.3192 72.4282 59.6493L74.9435 64.6796C75.6979 66.1891 76.9221 67.4129 78.4313 68.1677L83.461 70.6837C83.7914 70.8486 84 71.1864 84 71.5557C84 71.9251 83.7914 72.2625 83.461 72.4277L78.4305 74.9429C76.9212 75.6974 75.6971 76.9215 74.9426 78.4307L72.4273 83.461C72.2621 83.7914 71.9243 84 71.5553 84C71.1859 84 70.8484 83.7914 70.6833 83.461L68.168 78.4307C67.4132 76.9214 66.1893 75.6973 64.6798 74.9429L59.6493 72.4269C59.3195 72.2614 59.1112 71.9242 59.1112 71.5552C59.1112 71.1862 59.3195 70.849 59.6493 70.6838ZM60.2791 58.7851L62.4348 57.7056C62.5762 57.6348 62.6652 57.4904 62.6652 57.3324C62.6652 57.1744 62.5762 57.03 62.4348 56.9592L60.2791 55.8809C59.632 55.5574 59.1076 55.033 58.7841 54.386L57.7058 52.2304C57.635 52.089 57.4906 52 57.3326 52C57.1745 52 57.0302 52.089 56.9594 52.2304L55.8811 54.386C55.5576 55.033 55.0331 55.5574 54.3861 55.8809L52.2304 56.9592C52.089 57.03 52 57.1744 52 57.3324C52 57.4904 52.089 57.6348 52.2304 57.7056L54.3864 58.7836L54.3861 58.7839C55.0331 59.1071 55.5579 59.6318 55.8811 60.2785L56.9594 62.4345C57.0302 62.5758 57.1746 62.6648 57.3326 62.6648C57.4906 62.6648 57.635 62.5758 57.7058 62.4345L58.7838 60.2785V60.2788C59.1073 59.6318 59.6321 59.1074 60.2791 58.7842L60.2791 58.7851Z" fill="white"/>
</g>
<defs>
<filter id="filter0_d_23293_15183" x="0" y="0" width="136" height="136" filterUnits="userSpaceOnUse" color-interpolation-filters="sRGB">
<feFlood flood-opacity="0" result="BackgroundImageFix"/>
<feColorMatrix in="SourceAlpha" type="matrix" values="0 0 0 0 0 0 0 0 0 0 0 0 0 0 0 0 0 0 127 0" result="hardAlpha"/>
<feOffset/>
<feGaussianBlur stdDeviation="18"/>
<feComposite in2="hardAlpha" operator="out"/>
<feColorMatrix type="matrix" values="0 0 0 0 0.0965294 0 0 0 0 0.548265 0 0 0 0 1 0 0 0 0.41 0"/>
<feBlend mode="normal" in2="BackgroundImageFix" result="effect1_dropShadow_23293_15183"/>
<feBlend mode="normal" in="SourceGraphic" in2="effect1_dropShadow_23293_15183" result="shape"/>
</filter>
<clipPath id="paint0_angular_23293_15183_clip_path"><rect x="36" y="36" width="64" height="64" rx="32" shape-rendering="crispEdges"/></clipPath></defs>
</svg>
